<svg xmlns="http://www.w3.org/2000/svg" xmlns:xlink="http://www.w3.org/1999/xlink" width="500" zoomAndPan="magnify" viewBox="0 0 375 374.999991" height="500" preserveAspectRatio="xMidYMid meet" version="1.2"><defs><clipPath id="5f3c83f4e5"><path d="M 5.371094 0 L 369.785156 0 L 369.785156 375 L 5.371094 375 Z M 5.371094 0 "/></clipPath></defs><g id="eb2cbbfde4"><g clip-rule="nonzero" clip-path="url(#5f3c83f4e5)"><path style=" stroke:none;fill-rule:nonzero;fill:#f76e8d;fill-opacity:1;" d="M 51.089844 278.199219 C 51.597656 279.023438 52.296875 280.167969 52.875 281.105469 C 53.453125 282.050781 53.929688 282.761719 53.890625 282.78125 C 53.875 282.789062 53.738281 282.617188 53.519531 282.332031 C 53.300781 282.050781 53.003906 281.652344 52.6875 281.195312 C 52.046875 280.285156 51.273438 279.179688 50.707031 278.378906 L 49.339844 275.65625 C 49.929688 276.511719 50.507812 277.355469 51.089844 278.199219 Z M 114.292969 35.078125 C 117.246094 33.515625 120.265625 32.085938 123.296875 30.695312 C 124.828125 30.027344 126.351562 29.347656 127.894531 28.710938 C 129.445312 28.09375 130.980469 27.4375 132.550781 26.867188 C 131.011719 27.589844 129.511719 28.390625 128 29.15625 C 127.242188 29.535156 126.503906 29.957031 125.757812 30.359375 C 125.015625 30.765625 124.265625 31.160156 123.53125 31.582031 C 120.589844 33.257812 117.679688 34.96875 114.859375 36.8125 C 119.160156 34.53125 123.046875 32.6875 126.558594 31.199219 C 126.996094 31.007812 127.429688 30.820312 127.851562 30.636719 C 128.28125 30.460938 128.699219 30.292969 129.117188 30.125 C 129.945312 29.789062 130.75 29.464844 131.523438 29.152344 C 133.089844 28.558594 134.554688 28.015625 135.933594 27.523438 C 141.445312 25.574219 145.527344 24.5 148.648438 23.738281 C 151.773438 22.988281 153.960938 22.628906 155.777344 22.328125 C 157.601562 22.082031 159.050781 21.890625 160.753906 21.703125 C 167.683594 20.917969 174.402344 20.597656 180.964844 20.660156 C 187.523438 20.742188 193.929688 21.21875 200.238281 22.035156 C 201.90625 22.25 202.578125 22.578125 201.195312 22.535156 C 200.128906 22.5 199.089844 22.46875 198.082031 22.4375 C 197.074219 22.433594 196.089844 22.425781 195.136719 22.417969 C 194.179688 22.40625 193.253906 22.421875 192.355469 22.445312 C 191.457031 22.464844 190.582031 22.484375 189.738281 22.5 C 188.046875 22.585938 186.457031 22.640625 184.976562 22.738281 C 183.492188 22.855469 182.109375 22.941406 180.824219 23.066406 C 179.539062 23.195312 178.347656 23.320312 177.246094 23.433594 C 176.148438 23.578125 175.140625 23.707031 174.21875 23.832031 C 173.753906 23.898438 173.316406 23.949219 172.894531 24.015625 C 172.476562 24.085938 172.078125 24.148438 171.699219 24.210938 C 170.945312 24.339844 170.269531 24.453125 169.664062 24.554688 C 164.851562 25.480469 164.78125 25.703125 166.863281 25.542969 C 167.386719 25.503906 168.042969 25.445312 168.796875 25.367188 C 169.554688 25.300781 170.402344 25.234375 171.308594 25.15625 C 173.117188 24.976562 175.167969 24.867188 177.117188 24.734375 C 178.09375 24.695312 179.046875 24.65625 179.9375 24.621094 C 180.832031 24.585938 181.660156 24.558594 182.386719 24.5625 C 183.84375 24.5625 184.882812 24.578125 185.203125 24.640625 C 185.992188 24.785156 186.976562 24.957031 188.113281 25.105469 C 188.691406 25.179688 189.296875 25.257812 189.925781 25.335938 C 190.566406 25.421875 191.238281 25.511719 191.925781 25.601562 C 192.625 25.6875 193.34375 25.78125 194.082031 25.871094 C 194.824219 25.972656 195.585938 26.082031 196.355469 26.191406 C 197.90625 26.386719 199.515625 26.660156 201.132812 26.914062 C 201.941406 27.035156 202.753906 27.183594 203.5625 27.332031 C 204.367188 27.480469 205.175781 27.632812 205.976562 27.78125 C 207.570312 28.109375 209.132812 28.4375 210.617188 28.785156 C 212.101562 29.15625 213.511719 29.488281 214.800781 29.867188 C 216.082031 30.246094 217.253906 30.597656 218.261719 30.953125 C 220.726562 31.851562 220.863281 32.367188 219.023438 32.570312 C 218.5625 32.625 217.980469 32.636719 217.273438 32.671875 C 216.570312 32.703125 215.746094 32.714844 214.808594 32.714844 C 213.871094 32.703125 212.816406 32.71875 211.65625 32.71875 C 211.070312 32.714844 210.464844 32.707031 209.828125 32.703125 C 209.191406 32.710938 208.527344 32.71875 207.839844 32.726562 C 197.917969 31.03125 187.855469 30.25 177.378906 30.515625 C 176.59375 30.546875 175.359375 30.628906 174 30.726562 C 172.648438 30.859375 171.175781 31.003906 169.90625 31.125 C 168.648438 31.503906 168.347656 31.710938 165.699219 32.320312 C 165.414062 32.390625 164.828125 32.515625 164.046875 32.671875 C 163.265625 32.839844 162.292969 33.019531 161.246094 33.265625 C 160.199219 33.511719 159.0625 33.742188 157.964844 34.015625 C 156.871094 34.292969 155.800781 34.558594 154.867188 34.796875 C 148.992188 35.761719 143.105469 37.09375 137.28125 38.761719 C 131.460938 40.425781 125.703125 42.433594 120.109375 44.773438 C 114.507812 47.105469 109.050781 49.746094 103.800781 52.636719 C 98.558594 55.535156 93.535156 58.699219 88.765625 62.035156 C 87.476562 62.945312 88.675781 61.699219 90.230469 60.199219 C 91.019531 59.460938 91.890625 58.65625 92.566406 58.007812 C 93.246094 57.367188 93.738281 56.894531 93.742188 56.789062 C 93.75 56.300781 94.152344 55.507812 93.84375 55.265625 C 93.691406 55.144531 93.355469 55.160156 92.707031 55.417969 C 92.382812 55.550781 91.980469 55.742188 91.476562 56.007812 C 90.980469 56.28125 90.394531 56.640625 89.691406 57.085938 C 89.300781 57.335938 88.738281 57.71875 88.03125 58.222656 C 87.332031 58.738281 86.492188 59.378906 85.53125 60.121094 C 85.289062 60.308594 85.039062 60.5 84.785156 60.699219 C 84.53125 60.902344 84.277344 61.113281 84.011719 61.332031 C 83.480469 61.765625 82.925781 62.222656 82.34375 62.703125 C 81.757812 63.175781 81.171875 63.695312 80.558594 64.230469 C 79.945312 64.769531 79.308594 65.324219 78.65625 65.898438 C 76.09375 68.242188 73.277344 70.917969 70.492188 73.863281 C 67.710938 76.808594 64.921875 79.984375 62.320312 83.226562 C 61.25 84.597656 60.257812 85.855469 59.375 87.039062 C 58.507812 88.230469 57.695312 89.308594 56.988281 90.328125 C 56.289062 91.347656 55.652344 92.277344 55.074219 93.125 C 54.519531 93.988281 54.019531 94.765625 53.5625 95.476562 C 53.339844 95.832031 53.125 96.171875 52.921875 96.492188 C 52.730469 96.820312 52.546875 97.128906 52.371094 97.425781 C 52.03125 98.015625 51.722656 98.542969 51.445312 99.023438 C 50.894531 99.976562 50.503906 100.753906 50.171875 101.414062 C 49.523438 102.734375 49.128906 103.597656 48.605469 104.75 C 48.078125 105.902344 47.355469 107.3125 46.121094 109.757812 C 45.882812 110.21875 45.644531 110.671875 45.425781 111.121094 C 45.207031 111.570312 44.996094 112.011719 44.789062 112.445312 C 44.375 113.3125 43.960938 114.132812 43.597656 114.9375 C 43.234375 115.742188 42.890625 116.515625 42.558594 117.25 C 42.394531 117.621094 42.230469 117.980469 42.074219 118.332031 C 41.925781 118.691406 41.78125 119.039062 41.636719 119.378906 C 40.480469 122.089844 39.648438 124.328125 38.984375 126.125 C 38.363281 127.941406 37.875 129.304688 37.585938 130.335938 C 37.285156 131.363281 37.113281 132.035156 37.039062 132.4375 C 36.738281 134.042969 37.976562 131.320312 38.839844 129.742188 C 40.433594 126.953125 40.886719 127.125 42.667969 124.097656 C 43.101562 123.335938 43.652344 122.390625 44.324219 121.15625 C 45.003906 119.894531 45.824219 118.382812 46.832031 116.515625 C 48.910156 112.765625 51.765625 107.519531 56.433594 100.476562 L 56.261719 100.789062 C 60.292969 94.585938 63.828125 90.140625 66.378906 87.148438 C 67.667969 85.664062 68.699219 84.527344 69.46875 83.738281 C 70.25 82.960938 70.753906 82.511719 70.980469 82.394531 C 71.207031 82.277344 71.15625 82.492188 70.828125 83.03125 C 70.503906 83.574219 69.882812 84.433594 69.039062 85.660156 C 68.605469 86.269531 68.109375 86.960938 67.558594 87.734375 C 67.007812 88.523438 66.398438 89.398438 65.730469 90.355469 C 65.058594 91.3125 64.359375 92.386719 63.574219 93.527344 C 62.800781 94.675781 62.007812 95.9375 61.128906 97.273438 C 56.621094 104.417969 52.839844 111.574219 49.683594 118.867188 C 48.082031 122.503906 46.671875 126.191406 45.371094 129.917969 C 45.054688 130.855469 44.710938 131.777344 44.417969 132.722656 C 44.121094 133.664062 43.820312 134.605469 43.519531 135.550781 C 43.230469 136.496094 42.964844 137.449219 42.683594 138.402344 C 42.398438 139.351562 42.144531 140.3125 41.890625 141.277344 C 42.152344 140.703125 42.378906 140.21875 42.601562 139.761719 C 42.832031 139.3125 43.050781 138.882812 43.285156 138.425781 C 43.761719 137.507812 44.242188 136.429688 45.027344 134.71875 C 45.417969 133.863281 45.832031 132.832031 46.398438 131.601562 C 46.671875 130.976562 46.96875 130.304688 47.292969 129.566406 C 47.609375 128.824219 47.992188 128.039062 48.378906 127.167969 C 49.960938 123.710938 52.105469 119.148438 55.421875 113.203125 C 57.886719 108.816406 60.027344 105.546875 61.835938 102.992188 C 62.738281 101.714844 63.578125 100.632812 64.316406 99.65625 C 65.078125 98.699219 65.769531 97.875 66.394531 97.136719 C 67.015625 96.390625 67.621094 95.769531 68.167969 95.175781 C 68.722656 94.59375 69.222656 94.046875 69.746094 93.535156 C 70.261719 93.023438 70.769531 92.519531 71.289062 92.003906 C 71.550781 91.742188 71.816406 91.476562 72.085938 91.203125 C 72.363281 90.929688 72.648438 90.648438 72.945312 90.359375 C 73.25 90.054688 73.058594 90.375 72.554688 91.089844 C 72.050781 91.804688 71.269531 92.941406 70.339844 94.238281 C 68.542969 96.867188 66.292969 100.226562 65.007812 102.464844 C 62.578125 106.039062 59.886719 110.445312 57.652344 114.539062 C 56.519531 116.578125 55.523438 118.550781 54.648438 120.257812 C 53.808594 121.984375 53.066406 123.433594 52.570312 124.5 C 51.027344 127.585938 49.65625 130.75 48.347656 133.851562 C 47.734375 135.414062 47.085938 136.941406 46.535156 138.472656 C 46.25 139.234375 45.96875 139.992188 45.6875 140.738281 C 45.425781 141.488281 45.167969 142.230469 44.914062 142.964844 C 42.878906 148.832031 41.40625 154.164062 40.363281 158.183594 C 40.015625 159.417969 39.824219 160.152344 39.652344 160.503906 C 39.492188 160.851562 39.386719 160.820312 39.324219 160.539062 C 39.261719 160.257812 39.238281 159.722656 39.238281 159.070312 C 39.246094 158.421875 39.289062 157.65625 39.328125 156.902344 C 39.375 156.136719 39.445312 155.09375 39.613281 153.898438 C 39.777344 152.703125 39.9375 151.324219 40.199219 149.890625 C 40.324219 149.171875 40.453125 148.433594 40.578125 147.6875 C 40.703125 146.941406 40.871094 146.199219 41.015625 145.453125 C 41.160156 144.710938 41.308594 143.972656 41.453125 143.246094 C 41.613281 142.53125 41.769531 141.828125 41.917969 141.152344 C 38.804688 152.121094 36.875 163.777344 36.28125 175.339844 C 35.660156 186.90625 36.28125 198.355469 37.757812 208.972656 C 38.597656 215.019531 39.761719 221.210938 41.3125 227.269531 C 42.847656 233.332031 44.707031 239.277344 46.792969 244.867188 C 48.894531 250.457031 51.203125 255.691406 53.523438 260.394531 C 55.847656 265.09375 58.183594 269.257812 60.265625 272.753906 C 63.789062 278.558594 65.382812 281.054688 66.390625 282.921875 C 66.90625 283.84375 67.292969 284.601562 67.78125 285.492188 C 68.28125 286.371094 68.902344 287.367188 69.863281 288.792969 C 71.734375 291.511719 75.328125 295.929688 75.484375 296.402344 C 75.554688 296.644531 74.695312 295.957031 72.386719 293.511719 C 72.097656 293.203125 71.78125 292.878906 71.449219 292.511719 C 71.121094 292.144531 70.765625 291.746094 70.386719 291.324219 C 70.007812 290.894531 69.601562 290.441406 69.171875 289.953125 C 68.742188 289.464844 68.304688 288.929688 67.828125 288.367188 C 65.921875 286.128906 63.679688 283.269531 61.070312 279.675781 C 60.308594 278.597656 59.65625 277.742188 59.15625 277.050781 C 58.652344 276.359375 58.261719 275.859375 57.964844 275.515625 C 57.371094 274.828125 57.160156 274.78125 57.203125 275.144531 C 57.292969 275.871094 58.386719 278.277344 59.582031 280.445312 C 60.75 282.660156 63.488281 286.75 62.667969 285.910156 C 62.460938 285.703125 62.023438 285.195312 61.3125 284.246094 C 60.960938 283.769531 60.527344 283.191406 60.011719 282.496094 C 59.496094 281.804688 58.929688 280.960938 58.257812 280 C 55.625 276.132812 51.589844 270.035156 46.78125 260.230469 C 46.476562 259.597656 46.175781 258.980469 45.886719 258.378906 C 45.59375 257.78125 45.335938 257.183594 45.070312 256.609375 C 44.546875 255.460938 44.039062 254.378906 43.601562 253.339844 C 43.160156 252.300781 42.726562 251.332031 42.347656 250.410156 C 41.96875 249.484375 41.617188 248.617188 41.285156 247.804688 C 40.625 246.179688 40.101562 244.75 39.613281 243.527344 C 39.152344 242.292969 38.765625 241.253906 38.433594 240.371094 C 38.09375 239.496094 37.84375 238.777344 37.617188 238.199219 C 37.394531 237.621094 37.21875 237.175781 37.070312 236.84375 C 36.777344 236.183594 36.613281 235.957031 36.519531 235.933594 C 34.570312 235.492188 32.957031 236.171875 31.527344 237.460938 C 31.523438 237.464844 31.539062 237.527344 31.574219 237.640625 C 31.605469 237.75 31.65625 237.914062 31.71875 238.125 C 31.847656 238.539062 32.03125 239.132812 32.25 239.839844 C 32.675781 241.265625 33.339844 243.132812 33.976562 245.003906 C 34.308594 245.9375 34.664062 246.859375 34.980469 247.730469 C 35.300781 248.597656 35.601562 249.410156 35.878906 250.09375 C 36.152344 250.785156 36.378906 251.355469 36.535156 251.757812 C 36.613281 251.960938 36.675781 252.117188 36.714844 252.226562 C 36.753906 252.332031 36.773438 252.390625 36.769531 252.390625 C 36.625 252.40625 36.195312 251.722656 35.671875 250.816406 C 35.410156 250.363281 35.125 249.855469 34.847656 249.347656 C 34.578125 248.839844 34.304688 248.335938 34.0625 247.878906 C 31.195312 240.425781 28.679688 231.800781 27.25 225.167969 C 24.785156 213.671875 23.71875 203.269531 23.527344 192.335938 C 23.316406 191.09375 23.171875 189.859375 23 188.617188 C 22.921875 187.992188 22.835938 187.367188 22.753906 186.742188 C 22.691406 186.113281 22.621094 185.480469 22.554688 184.847656 C 22.492188 184.234375 22.429688 183.59375 22.351562 182.800781 C 22.269531 182.003906 22.21875 181.050781 22.121094 179.808594 C 22.511719 174.378906 23.132812 169.183594 23.964844 164.078125 C 24.800781 158.96875 25.855469 153.953125 27.175781 148.894531 C 28.496094 143.832031 30.070312 138.722656 31.988281 133.457031 C 33.910156 128.191406 36.179688 122.761719 38.9375 117.09375 C 38.078125 116.707031 37.429688 116.414062 36.78125 116.125 C 38.726562 111.765625 40.847656 107.484375 43.140625 103.292969 C 45.457031 99.625 47.695312 96.488281 50.167969 93.164062 C 52.636719 89.839844 55.390625 86.355469 58.953125 82.15625 C 63.164062 77.171875 68.050781 72.03125 73.585938 66.835938 C 76.382812 64.265625 79.3125 61.65625 82.457031 59.105469 C 85.605469 56.558594 88.910156 54.011719 92.421875 51.546875 C 95.222656 49.582031 99.640625 46.496094 104.710938 43.421875 C 109.765625 40.335938 115.457031 37.273438 120.492188 34.921875 C 118.707031 35.488281 116.898438 36.03125 115.125 36.660156 Z M 180.644531 355.296875 C 187.066406 356.09375 194.433594 356.445312 199.886719 356.527344 C 200.898438 356.542969 201.851562 356.554688 202.746094 356.574219 C 203.632812 356.574219 204.464844 356.574219 205.238281 356.574219 C 206.753906 356.582031 208.039062 356.589844 209.097656 356.597656 C 210.136719 356.609375 210.925781 356.648438 211.457031 356.703125 C 211.988281 356.75 212.265625 356.828125 212.289062 356.933594 C 212.308594 357.035156 212.074219 357.167969 211.578125 357.335938 C 211.082031 357.488281 210.320312 357.660156 209.296875 357.859375 C 208.273438 358.054688 206.984375 358.285156 205.421875 358.476562 C 204.636719 358.578125 203.789062 358.679688 202.878906 358.792969 C 201.957031 358.882812 200.972656 358.972656 199.921875 359.066406 C 193.453125 359.609375 186.894531 359.816406 180.277344 359.613281 C 173.660156 359.410156 166.984375 358.835938 160.292969 357.855469 C 158.613281 357.632812 156.949219 357.320312 155.269531 357.046875 C 153.59375 356.757812 151.925781 356.40625 150.242188 356.085938 C 148.578125 355.710938 146.894531 355.363281 145.222656 354.953125 C 143.554688 354.535156 141.871094 354.140625 140.207031 353.667969 C 133.527344 351.847656 126.863281 349.632812 120.292969 346.9375 C 118.660156 346.265625 115.117188 344.699219 111.078125 342.585938 C 107.027344 340.492188 102.480469 337.871094 98.660156 335.449219 C 98.085938 335.078125 97.125 334.433594 96.019531 333.675781 C 95.460938 333.304688 94.878906 332.886719 94.289062 332.457031 C 93.703125 332.027344 93.101562 331.589844 92.523438 331.167969 C 91.363281 330.328125 90.324219 329.484375 89.566406 328.890625 C 88.8125 328.292969 88.363281 327.921875 88.4375 327.9375 C 92.207031 328.90625 96.730469 330.378906 102.472656 332.28125 C 102.535156 332.300781 103.445312 332.855469 104.898438 333.742188 C 106.371094 334.59375 108.375 335.804688 110.667969 337.042969 C 111.800781 337.6875 113.015625 338.320312 114.25 338.960938 C 114.871094 339.28125 115.484375 339.617188 116.113281 339.925781 C 116.742188 340.234375 117.371094 340.542969 117.992188 340.851562 C 119.230469 341.476562 120.46875 342.042969 121.640625 342.582031 C 122.230469 342.851562 122.800781 343.113281 123.347656 343.367188 C 123.902344 343.605469 124.4375 343.835938 124.941406 344.054688 C 123.285156 342.941406 121.675781 341.734375 120.066406 340.574219 C 119.273438 339.972656 118.484375 339.371094 117.695312 338.765625 C 117.300781 338.464844 116.910156 338.167969 116.523438 337.863281 L 115.371094 336.933594 C 114.027344 335.914062 108.304688 332.25 112.371094 334.21875 C 113.574219 334.8125 114.648438 335.273438 115.578125 335.671875 C 116.507812 336.0625 117.285156 336.40625 117.953125 336.632812 C 119.277344 337.113281 120.078125 337.332031 120.449219 337.339844 C 121.195312 337.351562 120.226562 336.515625 118.328125 335.214844 C 117.386719 334.546875 116.222656 333.746094 114.921875 332.878906 C 114.277344 332.429688 113.601562 331.960938 112.90625 331.480469 C 112.210938 330.992188 111.484375 330.511719 110.773438 329.984375 C 110.054688 329.464844 109.328125 328.9375 108.597656 328.414062 C 107.871094 327.886719 107.164062 327.332031 106.457031 326.796875 C 105.042969 325.742188 103.722656 324.644531 102.519531 323.65625 C 105.996094 326.121094 109.339844 328.230469 112.457031 330.140625 C 114.027344 331.074219 115.53125 331.984375 117.007812 332.796875 C 117.742188 333.210938 118.453125 333.628906 119.167969 334.011719 C 119.878906 334.390625 120.578125 334.765625 121.257812 335.132812 C 126.730469 338.042969 131.386719 340.179688 135.261719 341.863281 C 137.1875 342.734375 138.945312 343.417969 140.496094 344.089844 C 142.050781 344.71875 143.425781 345.273438 144.652344 345.773438 C 145.867188 346.246094 146.917969 346.667969 147.816406 347.050781 C 148.714844 347.429688 149.476562 347.726562 150.101562 348.015625 C 152.609375 349.160156 153.082031 349.699219 152.914062 350.121094 C 152.75 350.539062 151.953125 350.804688 152.015625 351.277344 C 161.4375 353.433594 171.03125 354.761719 180.644531 355.296875 Z M 92.160156 319.800781 C 93.566406 321.078125 94.84375 322.136719 95.917969 323.054688 C 96.449219 323.515625 96.941406 323.929688 97.386719 324.292969 C 97.832031 324.660156 98.222656 324.988281 98.570312 325.277344 C 99.921875 326.4375 100.441406 326.925781 99.945312 326.761719 C 99.695312 326.683594 99.207031 326.417969 98.453125 325.984375 C 98.070312 325.757812 97.628906 325.492188 97.121094 325.191406 C 96.609375 324.882812 96.027344 324.53125 95.394531 324.109375 C 94.117188 323.28125 92.554688 322.269531 90.753906 320.992188 C 90.300781 320.675781 89.828125 320.347656 89.339844 320.007812 C 88.859375 319.652344 88.363281 319.285156 87.84375 318.90625 C 87.328125 318.527344 86.792969 318.132812 86.238281 317.726562 C 85.695312 317.308594 85.132812 316.878906 84.550781 316.429688 C 82.609375 315.261719 80.714844 314.015625 78.808594 312.761719 C 75.519531 309.75 72.375 306.585938 69.335938 303.328125 C 74.558594 308.484375 80.148438 313.234375 85.953125 317.660156 C 87.847656 318.292969 89.816406 319.042969 92.160156 319.800781 Z M 49.667969 234.636719 C 49.394531 233.792969 49.117188 232.933594 48.832031 232.058594 C 48.574219 231.179688 48.308594 230.285156 48.042969 229.382812 C 47.761719 228.480469 47.527344 227.558594 47.28125 226.636719 C 47.039062 225.714844 46.773438 224.796875 46.5625 223.859375 C 45.617188 220.148438 44.894531 216.398438 44.273438 212.96875 C 44.125 212.109375 43.984375 211.273438 43.847656 210.457031 C 43.699219 209.644531 43.605469 208.847656 43.484375 208.085938 C 43.375 207.324219 43.25 206.59375 43.15625 205.894531 C 43.0625 205.195312 42.972656 204.53125 42.890625 203.90625 C 42.800781 203.285156 42.714844 202.699219 42.636719 202.160156 C 42.570312 201.617188 42.503906 201.121094 42.4375 200.675781 C 42.308594 199.78125 42.183594 199.089844 42.066406 198.636719 C 41.835938 197.613281 41.449219 194.820312 41.191406 191.65625 C 41.109375 190.867188 41.0625 190.054688 41.011719 189.242188 C 40.960938 188.429688 40.90625 187.617188 40.855469 186.828125 C 40.785156 185.253906 40.71875 183.773438 40.664062 182.550781 C 40.585938 180.121094 40.464844 178.78125 40.238281 179.992188 C 40.183594 180.296875 40.121094 180.757812 40.050781 181.402344 C 39.980469 182.046875 39.894531 182.871094 39.84375 183.90625 C 39.722656 185.972656 39.589844 188.867188 39.648438 192.765625 C 39.660156 193.574219 39.613281 193.449219 39.527344 192.734375 C 39.445312 192.019531 39.3125 190.714844 39.230469 189.148438 C 39.183594 188.367188 39.136719 187.523438 39.082031 186.65625 C 39.054688 185.792969 39.027344 184.90625 38.996094 184.042969 C 38.980469 183.609375 38.96875 183.183594 38.953125 182.769531 C 38.949219 182.355469 38.945312 181.953125 38.941406 181.5625 C 38.929688 180.789062 38.921875 180.082031 38.910156 179.476562 C 39.175781 176.21875 39.558594 172.019531 40.113281 168.410156 C 40.175781 167.960938 40.242188 167.515625 40.300781 167.085938 C 40.375 166.65625 40.445312 166.238281 40.511719 165.835938 C 40.652344 165.03125 40.78125 164.285156 40.898438 163.617188 C 41.148438 162.289062 41.382812 161.292969 41.515625 160.808594 C 42.410156 157.699219 43.277344 154.761719 45.003906 149.078125 C 45.894531 146.246094 46.972656 142.714844 48.625 138.222656 C 49.023438 137.09375 49.496094 135.917969 49.964844 134.664062 C 50.445312 133.410156 50.996094 132.109375 51.542969 130.71875 C 52.726562 127.972656 54.027344 124.925781 55.667969 121.628906 C 55.882812 121.195312 56.078125 120.777344 56.28125 120.386719 C 56.484375 120 56.679688 119.636719 56.863281 119.285156 C 57.234375 118.59375 57.570312 117.980469 57.875 117.433594 C 58.507812 116.355469 59.023438 115.554688 59.441406 114.9375 C 59.855469 114.316406 60.191406 113.894531 60.476562 113.570312 C 60.757812 113.246094 60.980469 113.023438 61.1875 112.8125 C 61.664062 112.328125 62.148438 111.761719 62.707031 111.085938 C 63.265625 110.410156 63.878906 109.609375 64.574219 108.628906 C 65.289062 107.660156 66.097656 106.515625 67.042969 105.152344 C 67.523438 104.476562 68.039062 103.742188 68.589844 102.949219 C 69.140625 102.152344 69.765625 101.316406 70.410156 100.402344 C 73.042969 96.769531 76.480469 92.105469 81.488281 86.402344 C 86.496094 80.714844 93.054688 73.921875 102.253906 66.644531 C 102.972656 66.070312 103.679688 65.507812 104.398438 64.976562 C 105.109375 64.4375 105.8125 63.90625 106.511719 63.378906 C 107.933594 62.359375 109.320312 61.324219 110.769531 60.355469 C 112.195312 59.351562 113.679688 58.410156 115.203125 57.417969 C 115.972656 56.933594 116.765625 56.460938 117.566406 55.96875 C 118.367188 55.46875 119.199219 54.992188 120.058594 54.507812 C 120.484375 54.265625 120.996094 53.972656 121.574219 53.648438 C 122.15625 53.328125 122.808594 52.996094 123.492188 52.632812 C 124.851562 51.902344 126.382812 51.171875 127.808594 50.476562 C 129.238281 49.792969 130.59375 49.203125 131.601562 48.742188 C 132.621094 48.3125 133.304688 48.035156 133.40625 48.007812 C 133.960938 47.867188 134.675781 47.632812 135.5 47.394531 C 136.328125 47.152344 137.246094 46.882812 138.1875 46.601562 C 139.128906 46.320312 140.109375 46.070312 141.03125 45.816406 C 141.492188 45.695312 141.9375 45.570312 142.371094 45.464844 C 142.800781 45.363281 143.207031 45.269531 143.589844 45.183594 C 145.105469 44.847656 146.128906 44.671875 146.082031 44.859375 C 146.03125 45.039062 144.910156 45.574219 142.15625 46.675781 C 141.210938 47.074219 140.332031 47.449219 139.515625 47.796875 C 138.703125 48.148438 137.960938 48.503906 137.277344 48.816406 C 135.898438 49.4375 134.785156 50.023438 133.871094 50.492188 C 133.417969 50.726562 133.011719 50.9375 132.660156 51.132812 C 132.308594 51.332031 132.007812 51.511719 131.753906 51.667969 C 131.242188 51.980469 130.914062 52.203125 130.742188 52.351562 C 130.398438 52.652344 130.6875 52.652344 131.414062 52.449219 C 131.777344 52.347656 132.25 52.191406 132.804688 51.996094 C 133.371094 51.804688 134.019531 51.585938 134.722656 51.34375 C 135.4375 51.105469 136.199219 50.808594 137.019531 50.546875 C 137.835938 50.273438 138.691406 49.984375 139.558594 49.695312 C 140.425781 49.410156 141.320312 49.144531 142.199219 48.867188 C 142.636719 48.734375 143.070312 48.59375 143.503906 48.46875 C 143.9375 48.347656 144.363281 48.226562 144.785156 48.109375 C 145.625 47.882812 146.421875 47.644531 147.167969 47.464844 C 147.917969 47.285156 148.605469 47.121094 149.207031 46.988281 C 150.40625 46.710938 151.277344 46.59375 151.601562 46.621094 C 152.480469 46.335938 153.300781 46.070312 154.0625 45.824219 C 154.832031 45.589844 155.542969 45.375 156.207031 45.171875 C 157.53125 44.75 158.679688 44.457031 159.675781 44.152344 C 160.679688 43.851562 161.546875 43.617188 162.339844 43.398438 C 163.128906 43.175781 163.84375 42.976562 164.535156 42.78125 C 166.183594 42.359375 167.757812 41.90625 169.332031 41.550781 C 170.121094 41.367188 170.898438 41.171875 171.683594 40.996094 C 172.472656 40.828125 173.261719 40.660156 174.058594 40.488281 C 179.367188 39.941406 184.371094 39.691406 190.132812 39.679688 C 194.300781 39.683594 199.472656 39.84375 204.164062 40.273438 C 204.511719 40.242188 204.855469 40.214844 205.199219 40.1875 C 205.539062 40.167969 205.878906 40.148438 206.222656 40.128906 C 206.917969 40.09375 207.628906 40.058594 208.394531 40.019531 C 208.957031 39.992188 209.601562 40 210.40625 40.003906 C 211.214844 40.015625 212.1875 40.003906 213.390625 40.039062 C 217.117188 40.652344 220.722656 41.429688 224.191406 42.257812 C 227.65625 43.101562 230.96875 44.058594 234.105469 45.046875 C 240.367188 47.070312 245.894531 49.320312 250.46875 51.484375 C 251.757812 52.085938 253.023438 52.726562 254.300781 53.335938 L 256.195312 54.304688 C 256.828125 54.625 257.46875 54.9375 258.097656 55.28125 C 259.359375 55.953125 260.640625 56.605469 261.910156 57.320312 C 262.546875 57.671875 263.199219 58.011719 263.839844 58.375 C 264.484375 58.742188 265.132812 59.109375 265.785156 59.484375 C 266.113281 59.667969 266.441406 59.851562 266.769531 60.039062 C 267.097656 60.234375 267.425781 60.429688 267.753906 60.625 C 268.417969 61.011719 269.082031 61.402344 269.761719 61.800781 C 270.425781 62.207031 271.101562 62.621094 271.789062 63.042969 C 272.128906 63.25 272.472656 63.460938 272.820312 63.671875 C 273.164062 63.890625 273.507812 64.109375 273.855469 64.332031 C 276.652344 66.074219 279.53125 68.019531 282.566406 70.167969 C 289.988281 75.441406 296.894531 81.027344 302.421875 87.089844 C 312.289062 97.851562 319.953125 109.84375 325.898438 122.53125 C 328.203125 127.449219 329.976562 131.949219 331.664062 136.886719 C 334.976562 146.585938 337.066406 155.882812 338.253906 163.148438 C 338.332031 163.601562 338.410156 164.046875 338.488281 164.480469 C 338.550781 164.917969 338.617188 165.351562 338.679688 165.769531 C 338.8125 166.609375 338.9375 167.414062 339.058594 168.183594 C 339.253906 169.722656 339.472656 171.101562 339.632812 172.308594 C 339.789062 173.515625 339.9375 174.546875 340.082031 175.378906 C 340.207031 176.207031 340.320312 176.839844 340.433594 177.246094 C 340.609375 177.863281 340.789062 178.535156 340.96875 179.226562 C 341.128906 179.921875 341.292969 180.628906 341.453125 181.324219 C 341.613281 182.023438 341.792969 182.707031 341.933594 183.339844 C 342.074219 183.972656 342.21875 184.558594 342.363281 185.0625 C 342.933594 187.066406 343.484375 187.738281 343.972656 184.800781 C 344.78125 179.945312 345.355469 174.566406 345.496094 168.382812 C 345.503906 167.996094 345.511719 167.605469 345.523438 167.214844 C 345.523438 166.820312 345.519531 166.425781 345.519531 166.027344 C 345.515625 165.226562 345.507812 164.414062 345.503906 163.589844 C 345.484375 162.765625 345.449219 161.929688 345.417969 161.074219 C 345.386719 160.222656 345.355469 159.355469 345.285156 158.476562 C 345.226562 157.589844 345.164062 156.695312 345.101562 155.785156 C 345.011719 154.875 344.921875 153.949219 344.828125 153.011719 C 344.742188 152.066406 344.621094 151.113281 344.488281 150.144531 C 344.355469 149.175781 344.25 148.183594 344.074219 147.183594 C 343.480469 143.167969 342.609375 138.914062 341.460938 134.390625 C 340.300781 129.867188 338.832031 125.085938 336.945312 120.058594 C 335.058594 115.03125 332.757812 109.757812 329.925781 104.28125 C 327.070312 98.820312 323.703125 93.148438 319.660156 87.375 C 317.445312 84.199219 315.191406 81.257812 312.988281 78.464844 C 311.855469 77.097656 310.78125 75.722656 309.664062 74.445312 C 309.109375 73.796875 308.5625 73.15625 308.023438 72.523438 C 307.46875 71.902344 306.921875 71.289062 306.378906 70.679688 C 302.042969 65.820312 297.828125 61.648438 293.871094 57.988281 C 289.910156 54.332031 286.207031 51.183594 282.796875 48.433594 C 279.378906 45.695312 276.273438 43.328125 273.476562 41.253906 C 272.089844 40.238281 270.769531 39.273438 269.511719 38.351562 C 268.253906 37.46875 267.09375 36.609375 265.992188 35.824219 C 264.890625 35.046875 263.871094 34.300781 262.921875 33.601562 C 261.960938 32.925781 261.078125 32.277344 260.261719 31.660156 C 259.449219 31.03125 258.6875 30.488281 257.996094 29.9375 C 257.304688 29.398438 256.675781 28.875 256.097656 28.390625 C 254.933594 27.433594 254 26.5625 253.230469 25.757812 C 252.667969 25.167969 252.492188 24.742188 252.667969 24.429688 C 252.847656 24.125 253.382812 23.925781 254.210938 23.875 C 255.042969 23.816406 256.179688 23.875 257.578125 24.039062 C 258.96875 24.207031 260.609375 24.515625 262.464844 24.898438 C 266.15625 25.730469 270.65625 27.011719 275.507812 28.742188 C 280.367188 30.460938 285.570312 32.640625 290.699219 35.105469 C 291.878906 35.675781 293.136719 36.316406 294.242188 36.839844 C 295.34375 37.363281 296.265625 37.824219 296.804688 37.984375 C 297.339844 38.152344 297.476562 38.042969 296.96875 37.5 C 296.71875 37.230469 296.304688 36.851562 295.695312 36.335938 C 295.085938 35.832031 294.269531 35.214844 293.234375 34.445312 C 290.015625 32.117188 287.667969 30.414062 285.984375 29.195312 C 285.191406 28.597656 284.589844 28.128906 284.164062 27.777344 C 283.742188 27.421875 283.503906 27.164062 283.425781 27 C 283.113281 26.347656 285.40625 27.109375 288.855469 28.667969 C 289.28125 28.855469 290.085938 29.269531 291.042969 29.792969 C 292 30.316406 293.136719 30.914062 294.195312 31.527344 C 295.253906 32.136719 296.265625 32.710938 297.011719 33.121094 C 297.761719 33.527344 298.234375 33.792969 298.25 33.726562 C 298.261719 33.664062 297.820312 33.273438 296.664062 32.476562 C 296.089844 32.078125 295.34375 31.5625 294.398438 30.929688 C 293.453125 30.292969 292.285156 29.570312 290.898438 28.691406 C 290.207031 28.25 289.441406 27.804688 288.617188 27.3125 C 287.789062 26.828125 286.910156 26.300781 285.953125 25.753906 C 284.988281 25.21875 283.957031 24.644531 282.859375 24.039062 C 281.761719 23.429688 280.570312 22.828125 279.316406 22.171875 C 274.273438 19.59375 267.945312 16.605469 259.925781 13.644531 C 259.015625 13.308594 257.542969 12.722656 255.753906 12.085938 C 254.859375 11.761719 253.898438 11.390625 252.886719 11.042969 C 251.875 10.695312 250.820312 10.332031 249.761719 9.96875 C 245.519531 8.546875 241.15625 7.25 238.988281 6.640625 C 234.972656 5.449219 228.636719 3.90625 221.433594 2.738281 C 214.234375 1.546875 206.175781 0.738281 198.847656 0.433594 C 191.515625 0.128906 184.914062 0.269531 180.585938 0.433594 C 179.503906 0.453125 178.5625 0.503906 177.789062 0.527344 C 177.015625 0.546875 176.40625 0.550781 175.988281 0.539062 C 175.148438 0.511719 175.070312 0.402344 175.941406 0.195312 C 176.035156 0.175781 175.726562 0.1875 175.101562 0.222656 C 174.480469 0.261719 173.550781 0.355469 172.398438 0.457031 C 171.246094 0.570312 169.867188 0.695312 168.367188 0.894531 C 166.859375 1.078125 165.222656 1.273438 163.546875 1.546875 C 162.710938 1.671875 161.859375 1.804688 161.011719 1.933594 C 160.164062 2.070312 159.320312 2.230469 158.484375 2.378906 C 157.652344 2.53125 156.828125 2.679688 156.03125 2.824219 C 155.234375 2.992188 154.460938 3.152344 153.71875 3.308594 C 152.976562 3.464844 152.269531 3.609375 151.605469 3.75 C 150.945312 3.910156 150.328125 4.054688 149.765625 4.1875 C 148.644531 4.457031 147.742188 4.675781 147.148438 4.832031 C 139.390625 6.9375 132.992188 9.140625 127.582031 11.191406 C 122.179688 13.261719 117.742188 15.152344 113.96875 16.894531 C 113.496094 17.109375 113.03125 17.316406 112.574219 17.527344 C 112.125 17.742188 111.679688 17.949219 111.246094 18.15625 C 110.378906 18.566406 109.542969 18.964844 108.734375 19.34375 C 107.132812 20.132812 105.644531 20.871094 104.230469 21.566406 C 102.832031 22.277344 101.511719 22.957031 100.230469 23.609375 C 98.96875 24.285156 97.746094 24.933594 96.53125 25.582031 C 96.074219 25.820312 94.871094 26.550781 93.230469 27.546875 C 92.40625 28.039062 91.503906 28.632812 90.527344 29.261719 C 89.550781 29.894531 88.507812 30.558594 87.46875 31.285156 C 86.425781 32.007812 85.351562 32.722656 84.316406 33.464844 C 83.289062 34.214844 82.277344 34.949219 81.320312 35.644531 C 80.375 36.351562 79.5 37.035156 78.714844 37.636719 C 78.324219 37.941406 77.957031 38.226562 77.617188 38.488281 C 77.285156 38.761719 76.980469 39.007812 76.710938 39.230469 C 70.503906 44.308594 64.972656 49.367188 58.910156 55.800781 C 55.890625 59.023438 52.71875 62.574219 49.382812 66.738281 C 46.039062 70.898438 42.5 75.640625 38.789062 81.25 C 39.425781 80.199219 40.023438 79.210938 40.589844 78.277344 C 41.167969 77.347656 41.726562 76.488281 42.246094 75.667969 C 43.28125 74.019531 44.261719 72.613281 45.125 71.316406 C 45.558594 70.667969 45.980469 70.066406 46.390625 69.492188 C 46.796875 68.914062 47.1875 68.367188 47.5625 67.835938 C 48.304688 66.769531 49.03125 65.816406 49.726562 64.875 C 39.457031 76.925781 30.78125 90.433594 23.941406 104.722656 C 20.542969 111.878906 17.597656 119.222656 15.128906 126.6875 C 12.691406 134.15625 10.691406 141.726562 9.191406 149.332031 C 7.703125 156.9375 6.675781 164.5625 6.078125 172.136719 C 5.503906 179.710938 5.375 187.21875 5.628906 194.625 C 6.117188 209.441406 8.292969 223.8125 11.632812 237.328125 C 11.699219 237.601562 11.816406 238.050781 11.976562 238.640625 C 12.148438 239.230469 12.363281 239.957031 12.605469 240.792969 C 12.859375 241.625 13.125 242.574219 13.453125 243.578125 C 13.785156 244.582031 14.136719 245.660156 14.5 246.773438 C 16.007812 251.21875 17.921875 256.179688 19.367188 259.507812 C 21.105469 263.53125 22.949219 267.546875 24.980469 271.453125 L 25.730469 272.921875 L 26.511719 274.367188 C 27.035156 275.332031 27.542969 276.304688 28.078125 277.253906 C 29.164062 279.152344 30.230469 281.046875 31.363281 282.882812 C 35.816406 290.289062 40.71875 297.105469 45.570312 303.148438 C 49.976562 308.59375 54.453125 313.515625 58.75 317.863281 C 63.046875 322.214844 67.164062 325.992188 70.84375 329.203125 C 78.234375 335.589844 83.820312 339.742188 85.800781 341.6875 C 86.539062 342.394531 87.910156 343.539062 89.921875 344.957031 C 90.921875 345.671875 92.066406 346.476562 93.378906 347.320312 C 94.035156 347.742188 94.722656 348.183594 95.441406 348.648438 C 96.167969 349.105469 96.9375 349.5625 97.734375 350.042969 C 100.921875 351.972656 104.707031 354.050781 109.019531 356.175781 C 113.324219 358.308594 118.179688 360.457031 123.507812 362.476562 C 124.457031 362.855469 125.421875 363.195312 126.382812 363.542969 C 127.347656 363.886719 128.304688 364.246094 129.277344 364.574219 C 131.222656 365.214844 133.160156 365.894531 135.132812 366.472656 C 139.046875 367.707031 143.027344 368.742188 147.007812 369.71875 C 148.007812 369.941406 149.003906 370.167969 150.003906 370.390625 L 151.5 370.722656 L 153 371.023438 C 154 371.222656 155.003906 371.421875 156 371.621094 C 157.003906 371.792969 158.003906 371.964844 159.003906 372.140625 L 160.503906 372.398438 L 162.003906 372.625 C 163.003906 372.769531 164 372.914062 165 373.0625 C 165.996094 373.195312 166.996094 373.308594 167.988281 373.433594 C 168.984375 373.550781 169.976562 373.679688 170.96875 373.769531 C 178.90625 374.570312 186.722656 374.875 194.242188 374.707031 C 201.757812 374.53125 208.996094 373.914062 215.792969 372.953125 C 217.753906 372.699219 219.691406 372.359375 221.613281 372.046875 C 222.578125 371.894531 223.527344 371.691406 224.476562 371.519531 C 225.425781 371.335938 226.371094 371.160156 227.3125 370.96875 C 231.0625 370.167969 234.738281 369.320312 238.3125 368.328125 C 245.46875 366.375 252.269531 364.085938 258.675781 361.472656 C 271.5 356.273438 282.789062 350.007812 292.59375 343.308594 C 302.40625 336.605469 310.742188 329.46875 317.828125 322.402344 C 321.375 318.867188 324.585938 315.320312 327.53125 311.847656 C 330.488281 308.378906 333.132812 304.9375 335.542969 301.601562 C 344.300781 289.523438 351.992188 275.625 357.644531 261.152344 C 359.039062 257.523438 360.359375 253.886719 361.503906 250.214844 C 362.101562 248.394531 362.617188 246.550781 363.152344 244.722656 C 363.421875 243.8125 363.648438 242.886719 363.890625 241.976562 C 364.128906 241.058594 364.386719 240.152344 364.597656 239.234375 C 366.382812 231.917969 367.683594 224.679688 368.46875 217.691406 C 368.558594 216.796875 368.660156 215.886719 368.75 214.964844 C 368.800781 214.503906 368.851562 214.042969 368.894531 213.578125 C 368.933594 213.109375 368.972656 212.644531 369.007812 212.175781 C 369.082031 211.238281 369.160156 210.300781 369.230469 209.363281 C 369.28125 208.421875 369.335938 207.484375 369.386719 206.554688 C 369.503906 204.699219 369.523438 202.871094 369.570312 201.128906 C 369.609375 199.382812 369.574219 197.714844 369.566406 196.179688 C 369.527344 194.644531 369.453125 193.234375 369.390625 192.003906 C 369.332031 190.773438 369.203125 189.71875 369.109375 188.882812 C 368.902344 187.21875 368.6875 186.445312 368.460938 186.929688 C 367.445312 189.0625 366.476562 194.046875 365.046875 199.765625 C 364.679688 201.203125 364.308594 202.675781 363.929688 204.164062 C 363.511719 205.652344 363.09375 207.152344 362.675781 208.652344 C 362.21875 210.140625 361.785156 211.613281 361.3125 213.039062 C 360.824219 214.464844 360.367188 215.847656 359.878906 217.148438 C 359.554688 218 359.183594 219.105469 358.796875 220.28125 C 358.402344 221.453125 357.957031 222.679688 357.558594 223.789062 C 357.332031 224.433594 357.09375 225.027344 356.855469 225.589844 C 356.621094 226.148438 356.398438 226.683594 356.171875 227.214844 C 355.734375 228.273438 355.265625 229.289062 354.761719 230.425781 C 354.257812 231.605469 353.710938 232.871094 353.070312 234.355469 C 352.445312 235.894531 351.65625 237.6875 350.746094 239.914062 C 349.609375 242.566406 347.515625 247.898438 344.695312 253.753906 C 341.921875 259.628906 338.347656 265.96875 335.117188 271 C 335.0625 271.496094 335.085938 271.867188 335.050781 272.328125 C 335.011719 272.785156 334.910156 273.335938 334.617188 274.191406 C 334.46875 274.609375 333.980469 275.613281 333.351562 276.75 C 332.710938 277.886719 331.996094 279.191406 331.40625 280.214844 C 329.195312 283.390625 326.871094 286.4375 324.472656 289.449219 C 322.042969 292.441406 319.507812 295.371094 316.832031 298.28125 C 314.382812 300.914062 311.003906 304.324219 307.957031 307.15625 C 307.1875 307.855469 306.449219 308.53125 305.761719 309.160156 C 305.078125 309.789062 304.414062 310.347656 303.84375 310.855469 C 303.269531 311.359375 302.765625 311.804688 302.359375 312.164062 C 301.949219 312.515625 301.632812 312.785156 301.4375 312.957031 C 298.863281 315.308594 295.640625 317.9375 293.328125 319.847656 C 290.972656 321.707031 289.550781 322.882812 290.53125 322.265625 C 291.8125 321.460938 292.925781 320.785156 293.867188 320.214844 C 294.800781 319.628906 295.578125 319.164062 296.203125 318.808594 C 297.46875 318.109375 298.109375 317.820312 298.28125 317.945312 C 298.609375 318.195312 296.960938 320.027344 293.90625 322.761719 C 290.859375 325.496094 286.355469 329.078125 280.988281 332.710938 C 275.625 336.351562 269.410156 340.070312 263.117188 343.238281 C 251.863281 347.867188 241.113281 350.8125 231.492188 352.621094 C 226.683594 353.542969 222.140625 354.140625 217.9375 354.554688 C 216.882812 354.648438 215.855469 354.769531 214.847656 354.835938 C 213.835938 354.902344 212.847656 354.96875 211.882812 355.03125 C 210.917969 355.105469 209.972656 355.117188 209.050781 355.160156 C 208.128906 355.195312 207.234375 355.246094 206.359375 355.25 C 199.355469 355.378906 193.859375 355.007812 190.09375 354.578125 C 188.210938 354.355469 186.757812 354.109375 185.761719 353.910156 C 184.761719 353.699219 184.21875 353.484375 184.152344 353.328125 C 184.054688 353.140625 190.546875 353.164062 193.976562 352.921875 C 199.929688 353.066406 205.84375 352.910156 211.878906 352.417969 C 214.667969 352.183594 217.730469 351.851562 220.65625 351.441406 C 222.863281 350.96875 227.203125 349.964844 226.886719 349.882812 C 226.191406 349.707031 224.976562 349.648438 222.921875 349.730469 C 221.890625 349.753906 220.652344 349.816406 219.167969 349.921875 C 218.414062 349.960938 217.605469 350.003906 216.738281 350.050781 C 215.863281 350.101562 214.921875 350.179688 213.90625 350.214844 C 212.886719 350.269531 211.796875 350.324219 210.636719 350.382812 C 209.464844 350.425781 208.222656 350.472656 206.898438 350.515625 C 205.570312 350.542969 204.160156 350.574219 202.667969 350.601562 C 201.167969 350.601562 199.585938 350.597656 197.910156 350.597656 C 191.207031 350.488281 183.015625 350.089844 173.164062 348.648438 C 167.164062 348.507812 161.625 348.070312 156.09375 347.367188 C 147.28125 344.773438 138.082031 341.121094 130.785156 337.453125 C 123.835938 333.984375 117.300781 329.957031 113.925781 327.382812 C 112.691406 326.429688 117.691406 329 123.890625 331.914062 C 132.363281 335.867188 140.996094 339.054688 149.457031 341.460938 C 153.691406 342.660156 157.878906 343.667969 161.976562 344.519531 C 166.078125 345.359375 170.097656 346 173.980469 346.535156 C 174.953125 346.652344 175.917969 346.773438 176.871094 346.894531 C 177.824219 347.019531 178.773438 347.089844 179.710938 347.191406 C 181.585938 347.402344 183.425781 347.511719 185.222656 347.664062 C 186.121094 347.734375 187.011719 347.765625 187.890625 347.820312 C 188.769531 347.863281 189.632812 347.929688 190.492188 347.945312 C 192.203125 347.992188 193.871094 348.082031 195.488281 348.078125 C 201.960938 348.164062 207.632812 347.921875 212.285156 347.625 C 212.921875 347.582031 213.570312 347.539062 214.242188 347.496094 C 214.910156 347.453125 215.601562 347.371094 216.316406 347.308594 C 217.027344 347.242188 217.765625 347.171875 218.53125 347.097656 C 219.292969 347.003906 220.085938 346.90625 220.902344 346.808594 C 224.179688 346.414062 227.921875 345.832031 232.308594 344.96875 C 233.226562 344.597656 234.070312 344.269531 234.867188 343.933594 C 235.664062 343.589844 236.429688 343.257812 237.210938 342.921875 C 237.601562 342.75 237.996094 342.585938 238.398438 342.40625 C 238.800781 342.21875 239.210938 342.03125 239.636719 341.835938 C 240.488281 341.433594 241.414062 341.03125 242.429688 340.527344 C 243.515625 340.234375 244.507812 339.972656 245.425781 339.726562 C 246.335938 339.46875 247.164062 339.21875 247.933594 339 C 249.472656 338.5625 250.746094 338.136719 251.90625 337.773438 C 253.070312 337.410156 254.101562 337.042969 255.136719 336.675781 C 255.65625 336.488281 256.179688 336.296875 256.71875 336.105469 C 257.257812 335.910156 257.804688 335.683594 258.390625 335.453125 C 259.085938 335.175781 259.8125 334.882812 260.5625 334.582031 C 261.304688 334.265625 262.070312 333.933594 262.851562 333.597656 C 264.425781 332.9375 266.03125 332.148438 267.691406 331.390625 C 270.964844 329.789062 274.339844 328.054688 277.445312 326.277344 C 277.507812 326.164062 278.214844 325.695312 279.351562 324.929688 C 279.925781 324.558594 280.605469 324.113281 281.378906 323.609375 C 282.144531 323.097656 282.996094 322.523438 283.914062 321.90625 C 287.582031 319.429688 292.210938 316.070312 296.351562 312.667969 C 300.507812 309.28125 304.171875 305.855469 306.296875 303.710938 C 308.40625 301.539062 309.050781 300.722656 307.050781 302.351562 C 305.667969 303.480469 305.164062 303.738281 304.683594 303.949219 C 304.210938 304.164062 303.78125 304.34375 302.539062 305.292969 C 301.929688 305.773438 301.078125 306.40625 299.929688 307.339844 C 299.640625 307.570312 299.335938 307.824219 299.003906 308.089844 C 298.671875 308.351562 298.3125 308.632812 297.933594 308.933594 C 297.164062 309.527344 296.328125 310.230469 295.339844 310.972656 C 294.851562 311.351562 294.332031 311.75 293.785156 312.171875 C 293.511719 312.382812 293.230469 312.597656 292.941406 312.820312 C 292.648438 313.039062 292.347656 313.261719 292.039062 313.488281 C 291.421875 313.945312 290.769531 314.429688 290.085938 314.933594 C 289.402344 315.4375 288.664062 315.945312 287.902344 316.488281 C 284.832031 318.648438 281.128906 321.144531 276.550781 323.863281 C 273.15625 325.882812 269.796875 327.632812 266.636719 329.175781 C 265.835938 329.542969 265.054688 329.90625 264.285156 330.261719 C 263.898438 330.4375 263.519531 330.609375 263.144531 330.78125 C 262.761719 330.945312 262.386719 331.105469 262.015625 331.265625 C 261.269531 331.578125 260.542969 331.882812 259.835938 332.183594 C 259.125 332.472656 258.425781 332.738281 257.75 333 C 257.074219 333.257812 256.417969 333.515625 255.78125 333.746094 C 255.140625 333.96875 254.523438 334.1875 253.929688 334.394531 C 253.335938 334.597656 252.761719 334.792969 252.214844 334.976562 C 251.664062 335.148438 251.140625 335.3125 250.640625 335.464844 C 248.648438 336.09375 247.054688 336.488281 245.992188 336.734375 C 242.234375 337.566406 237.914062 338.488281 232.804688 339.355469 C 227.699219 340.214844 221.808594 341.019531 214.9375 341.550781 C 214.078125 341.628906 213.203125 341.679688 212.3125 341.726562 C 211.421875 341.777344 210.519531 341.839844 209.597656 341.882812 C 207.75 341.941406 205.847656 342.039062 203.875 342.042969 C 201.902344 342.09375 199.859375 342.046875 197.753906 342.027344 C 196.703125 341.996094 195.628906 341.960938 194.542969 341.925781 C 193.453125 341.894531 192.351562 341.8125 191.230469 341.757812 C 182.261719 341.21875 172.1875 339.941406 161.109375 337.171875 C 159.09375 336.664062 158.835938 336.472656 159.753906 336.535156 C 160.675781 336.585938 162.761719 336.945312 165.484375 337.375 C 166.152344 337.492188 167 337.640625 167.984375 337.777344 C 168.972656 337.921875 170.085938 338.121094 171.292969 338.273438 C 172.503906 338.425781 173.796875 338.625 175.140625 338.765625 C 175.8125 338.839844 176.492188 338.914062 177.179688 338.988281 C 177.519531 339.027344 177.863281 339.066406 178.207031 339.105469 L 179.242188 339.191406 C 184.757812 339.707031 190.207031 339.890625 192.523438 339.933594 C 194.140625 340.011719 195.753906 339.996094 197.359375 340.019531 C 198.160156 340.039062 198.960938 340.003906 199.757812 340 C 200.554688 339.984375 201.351562 339.988281 202.148438 339.960938 C 205.324219 339.847656 208.476562 339.695312 211.589844 339.398438 C 217.828125 338.84375 223.945312 337.9375 229.941406 336.652344 C 235.9375 335.367188 241.824219 333.773438 247.589844 331.800781 C 253.355469 329.828125 259.007812 327.523438 264.550781 324.878906 C 277.308594 318.734375 288.984375 311.027344 299.605469 301.792969 C 301.117188 299.78125 305.980469 294.117188 302.894531 296.511719 C 301.101562 297.886719 297.691406 300.820312 293.414062 304.09375 C 289.144531 307.367188 284.019531 310.976562 279.054688 313.96875 C 278.058594 314.558594 274.1875 317.101562 270.175781 319.367188 C 266.179688 321.65625 262.074219 323.6875 261.132812 324.183594 C 256.191406 326.804688 251.863281 328.703125 248.039062 330.195312 C 244.210938 331.6875 240.878906 332.785156 237.828125 333.632812 C 237.0625 333.84375 236.324219 334.0625 235.59375 334.25 C 234.859375 334.429688 234.140625 334.605469 233.433594 334.777344 C 232.027344 335.140625 230.644531 335.398438 229.285156 335.6875 C 228.605469 335.835938 227.925781 335.953125 227.242188 336.074219 C 226.5625 336.195312 225.878906 336.316406 225.191406 336.4375 C 223.8125 336.664062 222.40625 336.859375 220.953125 337.085938 C 216.855469 337.640625 212.640625 338.054688 208.324219 338.304688 C 207.246094 338.347656 206.164062 338.429688 205.070312 338.457031 C 203.980469 338.488281 202.882812 338.515625 201.78125 338.546875 C 200.679688 338.550781 199.570312 338.550781 198.457031 338.554688 C 197.347656 338.5625 196.226562 338.511719 195.105469 338.496094 C 186.132812 338.238281 176.898438 337.25 167.683594 335.308594 C 166.292969 335.019531 164.894531 334.695312 163.46875 334.386719 C 162.761719 334.214844 162.042969 334.046875 161.320312 333.871094 C 160.59375 333.695312 159.859375 333.53125 159.121094 333.328125 C 157.644531 332.941406 156.117188 332.566406 154.550781 332.105469 C 153.769531 331.878906 152.960938 331.679688 152.15625 331.421875 C 151.34375 331.175781 150.519531 330.925781 149.671875 330.667969 C 146.308594 329.601562 142.679688 328.371094 138.707031 326.828125 C 134.742188 325.269531 130.433594 323.398438 125.738281 321.046875 C 115.703125 316 106.886719 310.226562 98.996094 303.988281 C 91.113281 297.738281 84.152344 291 77.917969 283.769531 C 71.691406 276.535156 66.183594 268.796875 61.359375 260.398438 C 56.542969 251.996094 52.402344 242.921875 49.128906 232.957031 C 49.128906 232.957031 49.664062 234.628906 49.667969 234.636719 "/></g><path style=" stroke:none;fill-rule:nonzero;fill:#f76e8d;fill-opacity:1;" d="M 328.546875 273.460938 C 331.453125 269.550781 334.253906 265.382812 336.800781 261.191406 C 339.351562 257.003906 341.648438 252.796875 343.644531 248.847656 C 343.984375 248.15625 343.738281 248.976562 343.304688 250.195312 C 342.847656 251.40625 342.242188 253.007812 341.890625 253.9375 C 341.351562 255.023438 340.765625 256.253906 340.140625 257.503906 C 339.488281 258.738281 338.855469 260.019531 338.214844 261.191406 C 337.5625 262.363281 336.96875 263.460938 336.449219 264.363281 C 335.917969 265.257812 335.492188 265.96875 335.222656 266.386719 C 332.394531 270.738281 329.539062 274.652344 326.601562 278.339844 C 323.65625 282.027344 320.632812 285.488281 317.402344 288.898438 C 321.417969 283.972656 325.128906 278.808594 328.546875 273.460938 "/><path style=" stroke:none;fill-rule:nonzero;fill:#f76e8d;fill-opacity:1;" d="M 61.328125 120.765625 C 61.046875 121.675781 60.449219 123.242188 60.597656 123.320312 C 60.726562 123.386719 61.597656 121.980469 62.148438 121.230469 C 60.796875 123.769531 59.476562 126.632812 58.246094 129.34375 C 57.664062 130.710938 57.082031 132.03125 56.574219 133.273438 C 56.078125 134.523438 55.585938 135.660156 55.203125 136.675781 C 54.496094 138.472656 53.945312 139.871094 53.519531 140.949219 C 53.097656 142.015625 52.761719 142.730469 52.550781 143.195312 C 52.371094 143.582031 52.378906 143.3125 52.441406 142.859375 C 52.507812 142.410156 52.644531 141.777344 52.683594 141.433594 C 53 140.519531 53.285156 139.589844 53.621094 138.683594 L 54.617188 135.949219 C 55.324219 134.144531 56.011719 132.335938 56.78125 130.554688 C 58.300781 126.992188 59.917969 123.46875 61.722656 120.039062 L 61.328125 120.765625 "/><path style=" stroke:none;fill-rule:nonzero;fill:#f76e8d;fill-opacity:1;" d="M 78.605469 282.734375 C 77.585938 281.75 76.945312 281.0625 76.273438 280.394531 C 75.824219 279.773438 75.378906 279.117188 74.9375 278.460938 C 74.496094 277.808594 74.054688 277.15625 73.625 276.519531 C 72.808594 275.222656 72.019531 274.023438 71.4375 273.011719 C 71.394531 272.9375 71.53125 273.121094 71.785156 273.46875 C 72.046875 273.8125 72.429688 274.316406 72.867188 274.886719 C 73.304688 275.453125 73.773438 276.105469 74.261719 276.707031 C 74.742188 277.3125 75.203125 277.890625 75.574219 278.355469 C 76.105469 279.179688 76.671875 279.976562 77.1875 280.722656 C 77.710938 281.46875 78.179688 282.171875 78.605469 282.734375 "/><path style=" stroke:none;fill-rule:nonzero;fill:#f76e8d;fill-opacity:1;" d="M 61.722656 120.039062 C 61.296875 120.726562 60.691406 121.765625 60.199219 122.585938 C 59.730469 123.414062 59.367188 124.019531 59.378906 123.808594 C 59.398438 123.351562 60.882812 119.894531 61.835938 117.785156 C 62.289062 117.234375 63.210938 115.804688 63.074219 116.375 C 62.929688 116.992188 61.765625 119.453125 61.226562 120.953125 C 61.328125 120.765625 61.722656 120.039062 61.722656 120.039062 "/><path style=" stroke:none;fill-rule:nonzero;fill:#f76e8d;fill-opacity:1;" d="M 49.128906 232.957031 C 49.128906 232.957031 49.664062 234.628906 49.667969 234.636719 C 49.476562 233.914062 49.21875 232.941406 49 232.121094 C 48.796875 231.300781 48.65625 230.640625 48.679688 230.558594 C 48.769531 230.3125 49.304688 231.683594 49.691406 232.351562 C 49.941406 233.140625 50.25 234.097656 50.566406 235.089844 C 50.910156 236.078125 51.265625 237.101562 51.585938 238.023438 C 51.894531 238.953125 52.222656 239.765625 52.4375 240.359375 C 52.550781 240.65625 52.636719 240.894531 52.699219 241.0625 C 52.761719 241.226562 52.792969 241.324219 52.792969 241.324219 C 52.730469 241.574219 52.539062 241.507812 51.816406 239.996094 C 51.699219 239.757812 51.519531 239.355469 51.3125 238.84375 C 51.113281 238.324219 50.871094 237.707031 50.617188 237.042969 C 50.089844 235.71875 49.566406 234.183594 49.128906 232.957031 "/><path style=" stroke:none;fill-rule:nonzero;fill:#f76e8d;fill-opacity:1;" d="M 35.046875 211.324219 C 34.753906 204.5625 34.769531 198.386719 35.175781 196.761719 C 35.214844 196.589844 35.292969 197.015625 35.394531 197.820312 C 35.445312 198.226562 35.503906 198.722656 35.574219 199.285156 C 35.648438 199.847656 35.730469 200.480469 35.820312 201.148438 C 35.910156 201.820312 35.988281 202.535156 36.09375 203.257812 C 36.203125 203.980469 36.3125 204.714844 36.421875 205.4375 C 36.625 206.882812 36.886719 208.265625 37.09375 209.378906 C 37.316406 211.921875 37.851562 215.574219 38.320312 218.542969 C 38.574219 220.023438 38.8125 221.335938 38.953125 222.257812 C 39.09375 223.183594 39.183594 223.710938 39.101562 223.628906 C 38.765625 223.292969 38.175781 221.664062 37.417969 219.402344 C 37.050781 218.269531 36.675781 216.972656 36.253906 215.601562 C 35.867188 214.230469 35.457031 212.785156 35.046875 211.324219 "/><path style=" stroke:none;fill-rule:nonzero;fill:#f76e8d;fill-opacity:1;" d="M 34.046875 136.890625 C 33.644531 138.042969 33.257812 139.152344 32.902344 140.175781 C 32.535156 141.203125 32.257812 142.164062 31.984375 142.996094 C 31.71875 143.824219 31.488281 144.535156 31.3125 145.089844 C 31.140625 145.640625 31.011719 146.027344 30.933594 146.210938 C 30.832031 146.453125 30.992188 145.519531 31.269531 144.273438 C 31.5625 143.023438 31.921875 141.460938 32.167969 140.40625 C 32.515625 139.367188 32.976562 137.980469 33.367188 136.808594 C 33.789062 135.644531 34.136719 134.699219 34.234375 134.550781 C 34.539062 134.0625 34.179688 135.640625 34.046875 136.890625 "/><path style=" stroke:none;fill-rule:nonzero;fill:#f76e8d;fill-opacity:1;" d="M 56.261719 100.789062 C 56.347656 100.855469 56.546875 100.742188 56.492188 101.023438 C 56.402344 101.527344 56.160156 102.273438 55.984375 102.914062 C 55.429688 103.445312 54.589844 104.496094 54.460938 104.320312 C 54.425781 104.277344 54.710938 103.695312 55.09375 102.945312 C 55.480469 102.203125 55.988281 101.308594 56.355469 100.609375 C 56.433594 100.476562 56.261719 100.789062 56.261719 100.789062 "/><path style=" stroke:none;fill-rule:nonzero;fill:#f76e8d;fill-opacity:1;" d="M 137.945312 349.15625 C 143.207031 350.246094 148.492188 351.078125 153.769531 351.660156 C 148.488281 351.078125 143.207031 350.246094 137.945312 349.15625 "/><path style=" stroke:none;fill-rule:nonzero;fill:#f76e8d;fill-opacity:1;" d="M 123.328125 343.300781 C 128.542969 345.65625 133.878906 347.75 139.308594 349.570312 C 138.355469 349.363281 137.578125 349.183594 136.417969 348.882812 C 134.703125 348.453125 132.75 347.832031 130.894531 347.289062 C 130.027344 346.859375 129.128906 346.414062 128.25 345.984375 C 127.816406 345.765625 127.382812 345.546875 126.964844 345.335938 C 126.550781 345.117188 126.148438 344.902344 125.765625 344.695312 C 124.726562 344.132812 124.125 343.761719 123.328125 343.300781 "/><path style=" stroke:none;fill-rule:nonzero;fill:#ef2525;fill-opacity:1;" d="M 244.683594 235.535156 C 226.585938 231.210938 207.960938 245.09375 192.476562 231.242188 C 190.296875 229.675781 186.855469 227.574219 187.667969 225.054688 C 188.496094 222.476562 192.277344 224.117188 194.652344 224.257812 C 219.320312 228.125 221.554688 177.496094 197.679688 179.125 C 191.617188 180.398438 182.882812 178.785156 184.453125 170.847656 C 188.433594 153.140625 219.941406 97.96875 185.789062 85.339844 C 163.816406 77.226562 151.210938 91.292969 143.222656 112.128906 C 136.664062 129.222656 133.136719 147.199219 130.996094 165.378906 C 130.542969 169.25 129.445312 172.089844 125.203125 172.179688 C 107.695312 173.15625 109.9375 197.4375 107.492188 209.972656 C 106.199219 221.082031 113.128906 228.417969 124.636719 229.203125 C 126.917969 229.359375 126.613281 227.777344 126.917969 229.359375 C 131.089844 277.953125 161.554688 295.71875 208.179688 297.683594 C 238.179688 298.953125 245.773438 290.671875 253.925781 280.4375 C 266.8125 264.257812 269.957031 241.421875 244.683594 235.535156 Z M 247.972656 282.460938 C 240.457031 291.351562 232.335938 294.273438 212.742188 294.304688 C 163.875 294.386719 132.523438 275.859375 130.257812 226.0625 C 130.160156 223.90625 129.941406 221.964844 126.816406 224.652344 C 122.550781 228.320312 114.820312 224.066406 112.636719 217.515625 C 109.894531 207.285156 113.382812 197.015625 114.925781 186.914062 C 116.207031 180.09375 119.570312 176.746094 126.09375 175.757812 C 132.367188 174.8125 134.367188 173.101562 134.902344 166.570312 C 138.648438 141.558594 141.410156 113.929688 157.679688 93.574219 C 170.125 78.261719 198.21875 85.421875 197.691406 105.929688 C 198.671875 129.042969 186.117188 148.855469 180.757812 170.652344 C 177.582031 182.003906 187.480469 184.910156 196.644531 183.117188 C 216.453125 179.632812 214.964844 225.375 193.488281 220.886719 C 189.535156 221.253906 183.144531 217.738281 180.582031 221.710938 C 179.625 223.460938 181.261719 223.984375 182.019531 225.066406 C 200.367188 250.84375 217.523438 235.933594 241.957031 238.820312 C 267.894531 241.890625 262.042969 265.820312 247.972656 282.460938 Z M 247.972656 282.460938 "/></g></svg>